<?xml version="1.0" standalone="no"?><!DOCTYPE svg PUBLIC "-//W3C//DTD SVG 1.1//EN" "http://www.w3.org/Graphics/SVG/1.1/DTD/svg11.dtd"><svg t="1688192520623" class="icon" viewBox="0 0 1028 1024" version="1.1" xmlns="http://www.w3.org/2000/svg" p-id="9846" xmlns:xlink="http://www.w3.org/1999/xlink" width="200.78125" height="200"><path d="M119.617654 847.395626c-26.974155-12.214712-44.787276 12.723658-44.787276 35.117296V941.550696c0 46.314115 33.081511 82.449304 75.324055 82.449304h796.500994c41.224652 0 75.324056-34.099404 75.324056-75.324056v-870.29821c0-41.224652-34.099404-75.324056-75.324056-75.324056H150.154433c-41.224652 0-75.324056 34.099404-75.324055 75.324056v66.671968c0 11.705765 5.59841 22.393638 14.759443 29.00994 32.572565 23.411531 54.457256-4.071571 54.457257-29.518887v-71.252485h808.206759v882.003977H144.556024v-68.198808c0-17.304175-9.66998-33.081511-24.93837-39.697813z m361.860835-274.831014c-74.815109 34.60835-133.343936 103.82505-148.612326 185.765408v1.017893c-3.053678 8.652087-2.035785 18.322068 3.053678 26.465208 4.580517 7.634195 12.723658 14.250497 21.884692 17.304175H363.911889c18.831014 0 31.045726-12.214712 31.045725-31.045725v-1.017893c14.759443-89.574553 90.083499-152.17495 182.71173-152.17495 88.047714 0 166.934394 65.145129 182.71173 151.666004 5.089463 14.759443 15.777336 32.572565 38.67992 32.572564h13.741551c17.304175-6.107356 31.554672-24.429423 24.93837-43.769383v-1.017893c-14.759443-84.994036-71.252485-153.192843-147.085488-186.7833l-15.777336-7.125249 14.759444-6.107356c49.367793-32.063618 81.431412-86.520875 81.431411-147.594433 0-100.771372-84.994036-185.765408-185.765407-185.765408S399.538131 309.94831 399.538131 410.719682c0 62.091451 33.081511 116.548708 82.958251 148.612326l14.759443 5.598409-15.777336 7.634195z m103.82505-52.421471c-60.055666 0-108.914513-52.421471-108.914513-116.548708 0-62.091451 46.823062-108.914513 108.914513-108.914513 60.055666 0 108.914513 52.421471 108.914513 116.548708 0 61.582505-46.823062 108.914513-108.914513 108.914513z" p-id="9847" fill="#515151"></path><path d="M176.110696 356.262425H34.623618c-18.831014 0-34.60835-15.26839-34.60835-34.608349 0-18.831014 15.26839-34.60835 34.60835-34.60835h141.487078c18.831014 0 34.60835 15.26839 34.60835 34.60835 0 18.831014-15.26839 34.60835-34.60835 34.608349zM176.110696 554.751491H34.623618c-18.831014 0-34.60835-15.26839-34.60835-34.60835 0-18.831014 15.26839-34.60835 34.60835-34.60835h141.487078c18.831014 0 34.60835 15.26839 34.60835 34.60835 0 18.831014-15.26839 34.60835-34.60835 34.60835zM176.110696 753.240557H34.623618c-18.831014 0-34.60835-15.26839-34.60835-34.60835 0-18.831014 15.26839-34.60835 34.60835-34.60835h141.487078c18.831014 0 34.60835 15.26839 34.60835 34.60835 0 18.831014-15.26839 34.60835-34.60835 34.60835z" p-id="9848" fill="#515151"></path></svg>